# xmcd
#
# Track frame offsets:
#	150
#	13637
#	27935
#	42155
#	58210
#	73735
#	84150
#	98220
#
# Disc length: 1521 seconds
#
# Revision: 0
# Processed by: cddbd v1.5.2PL0 Copyright (c) Steve Scherf et al.
# Submitted via: EasyCDDAExtractor 10.0.6.1
#
DISCID=6005ef08
DTITLE=Various Artist - CDX 14B Sept. 1991
DYEAR=1991
DGENRE=Country
TTITLE0=Alison Krauss - I've Got That Old Feeling
TTITLE1=Larry Boone - It Wouldn't Kill Me
TTITLE2=Clinton Gregory - Satisfy Me And I'll Satisfy You
TTITLE3=George Strait - The Chill Of An Early Fall
TTITLE4=James Blundell - Time On His Hands
TTITLE5=Buddy Emmons - Triple Play
TTITLE6=Shenandoah - When You Were Mine
TTITLE7=Desert Rose Band - You Can Go Home
EXTD=
EXTT0=
EXTT1=
EXTT2=
EXTT3=
EXTT4=
EXTT5=
EXTT6=
EXTT7=
PLAYORDER=
